<?xml version="1.0" encoding="utf-8"?>
<!-- Generator: Adobe Illustrator 27.5.0, SVG Export Plug-In . SVG Version: 6.00 Build 0)  -->
<svg version="1.1" id="Layer_1" xmlns="http://www.w3.org/2000/svg" xmlns:xlink="http://www.w3.org/1999/xlink" x="0px" y="0px"
	 viewBox="0 0 648 648" style="enable-background:new 0 0 648 648;" xml:space="preserve">
<path d="M147.3,0C66.2,0,0,66.2,0,147.3c0,81.2,66.2,147.3,147.3,147.3c81.2,0,147.3-66.2,147.3-147.3C294.7,66.2,228.5,0,147.3,0
	L147.3,0z M147.3,223c-41.6,0-75.7-34.1-75.7-75.7s34.1-75.7,75.7-75.7s75.7,34.1,75.7,75.7S188.9,223,147.3,223L147.3,223z"/>
<path d="M500.7,294.7c81.2,0,147.3-66.2,147.3-147.3C648,66.2,581.8,0,500.7,0c-81.2,0-147.3,66.2-147.3,147.3
	C353.3,228.5,419.5,294.7,500.7,294.7L500.7,294.7z M500.7,71.6c41.6,0,75.7,34.1,75.7,75.7S542.3,223,500.7,223
	S425,188.9,425,147.3S459.1,71.6,500.7,71.6z"/>
<path d="M147.3,353.3C66.2,353.3,0,419.5,0,500.7C0,581.8,66.2,648,147.3,648c81.2,0,147.3-66.2,147.3-147.3
	C294.7,419.5,228.5,353.3,147.3,353.3L147.3,353.3z M147.3,576.4c-41.6,0-75.7-34.1-75.7-75.7s34.1-75.7,75.7-75.7
	s75.7,34.1,75.7,75.7S188.9,576.4,147.3,576.4L147.3,576.4z"/>
<path d="M500.7,353.3c-81.2,0-147.3,66.2-147.3,147.3c0,81.2,66.2,147.3,147.3,147.3c81.2,0,147.3-66.2,147.3-147.3
	C648,419.5,581.8,353.3,500.7,353.3L500.7,353.3z M500.7,576.4c-41.6,0-75.7-34.1-75.7-75.7s34.1-75.7,75.7-75.7
	s75.7,34.1,75.7,75.7S542.3,576.4,500.7,576.4z"/>
<circle cx="147.3" cy="147.3" r="82.9"/>
<circle cx="500.7" cy="147.3" r="82.9"/>
<circle cx="140.1" cy="500.7" r="82.9"/>
<circle cx="500.7" cy="500.7" r="82.9"/>
</svg>
