<?xml version="1.0" encoding="utf-8"?>
<!-- Generator: Adobe Illustrator 27.5.0, SVG Export Plug-In . SVG Version: 6.00 Build 0)  -->
<svg version="1.1" id="Layer_1" xmlns="http://www.w3.org/2000/svg" xmlns:xlink="http://www.w3.org/1999/xlink" x="0px" y="0px"
	 viewBox="0 0 648 648" style="enable-background:new 0 0 648 648;" xml:space="preserve">
<path d="M642.4,310.1L538.1,205.8c-7.5-7.5-19.8-7.5-28,0c-7.5,7.5-7.5,19.8,0,28l70.9,70.9H67l70.9-70.9c7.5-7.5,7.5-19.8,0-28
	c-7.5-7.5-19.8-7.5-28,0L5.6,310.1c-7.5,7.5-7.5,19.8,0,28l104.3,104.3c4.1,4.1,8.9,5.5,13.6,5.5c4.8,0,10.2-2,13.6-5.5
	c7.5-7.5,7.5-19.8,0-28L67,343.5h514l-70.9,70.2c-7.5,7.5-7.5,19.8,0,28c4.1,4.1,8.9,5.5,13.6,5.5c4.8,0,10.2-2,13.6-5.5l105-104.3
	C649.9,329.9,649.9,317.6,642.4,310.1L642.4,310.1z"/>
</svg>
