<?xml version="1.0" encoding="utf-8"?>
<!-- Generator: Adobe Illustrator 27.5.0, SVG Export Plug-In . SVG Version: 6.00 Build 0)  -->
<svg version="1.1" id="Layer_1" xmlns="http://www.w3.org/2000/svg" xmlns:xlink="http://www.w3.org/1999/xlink" x="0px" y="0px"
	 viewBox="0 0 648 648" style="enable-background:new 0 0 648 648;" xml:space="preserve">
<path d="M648,610.5c-85.8,0-178.3-15.2-279.5-57.4c20.6-10.1,32.9-17.4,54.6-34.1c84,28.7,123.7,38.4,224.9,40.5L648,610.5z"/>
<path d="M0,613v-51c236.1,0,515.6-160.6,515.6-296.3c0-119.3-64-179.7-190.1-179.7s-190.1,60.5-190.1,179.7
	c0,59.1,52.3,133.4,150,186.9c-17.4,11.6-32.9,18.1-53.9,27c-108.6-69-147.1-135.9-147.1-213.9C84.3,116.9,170,35,325.5,35
	s241.1,81.9,241.1,230.7C566.6,444.6,247.4,613,0,613L0,613z"/>
</svg>
