<?xml version="1.0" encoding="UTF-8" standalone="no"?>
<svg
   version="1.1"
   width="393"
   height="335"
   viewBox="0 0 393 335"
   id="svg138"
   sodipodi:docname="s2.svg"
   inkscape:version="1.2.1 (9c6d41e, 2022-07-14)"
   xmlns:inkscape="http://www.inkscape.org/namespaces/inkscape"
   xmlns:sodipodi="http://sodipodi.sourceforge.net/DTD/sodipodi-0.dtd"
   xmlns="http://www.w3.org/2000/svg"
   xmlns:svg="http://www.w3.org/2000/svg">
  <sodipodi:namedview
     id="namedview140"
     pagecolor="#ffffff"
     bordercolor="#000000"
     borderopacity="0.25"
     inkscape:showpageshadow="2"
     inkscape:pageopacity="0.0"
     inkscape:pagecheckerboard="0"
     inkscape:deskcolor="#d1d1d1"
     showgrid="false"
     inkscape:zoom="0.70447761"
     inkscape:cx="196.59958"
     inkscape:cy="167.5"
     inkscape:window-width="1309"
     inkscape:window-height="426"
     inkscape:window-x="0"
     inkscape:window-y="25"
     inkscape:window-maximized="0"
     inkscape:current-layer="svg138" />
  <defs
     id="defs130" />
  <g
     id="g136">
    <rect
       fill="rgb(255,255,255)"
       stroke="none"
       x="0"
       y="0"
       width="393"
       height="335"
       transform="matrix(1 0 0 1 0 0)"
       fill-opacity="1"
       id="rect132"
       inkscape:label="rect13" />
    <path
       fill="none"
       stroke="rgb(0,0,0)"
       paint-order="fill stroke markers"
       d=" M 250.1973097052319 144.33461581227314 C 247.8485423052362 133.8716864669756 248.0082246092552 98.96788670261294 236.10470530525768 81.55703974048791 C 224.20118600126017 64.14619277836287 193.03115823750062 49.51590293735255 178.77619388124688 39.86953403952296 C 164.52122952499315 30.22316514169337 146.60764305303928 21.19696944549099 150.57491916773532 23.67882635351036 C 154.54219528243135 26.16068326152973 185.3111078559154 39.348926260852245 202.57985056942312 54.760675487639176 C 219.84859328293084 70.17242471442611 234.79291762250827 108.71382195175937 254.18737544878164 116.14932171423195 C 273.58183327505503 123.58482147670452 308.56529248938784 86.13247526197168 318.9465975270633 99.37367406247462 C 329.3279025647388 112.61487286297756 309.28927355288 168.5162752747003 316.4752056748345 195.5965145172496 C 323.66113779678903 222.6767537597989 360.44338434889903 257.8481379186619 362.06219025879034 261.8551095177704 C 363.68099616868165 265.8620811168789 343.82940182880986 227.5035467603755 326.1880411341825 219.63834411190072 C 308.5466804395552 211.77314146342593 263.50004284168074 221.13156935725965 256.2140260910262 214.6638936269216 C 248.92800934037166 208.19621789658356 281.7764496909108 197.23122236871848 282.47194063025523 180.8322897298724 C 283.16743156959967 164.43335709102632 273.3012876053563 134.8771276514002 260.3869717270928 116.27029779384516 C 247.47265584882933 97.66346793629012 224.34026422611242 72.39609039514934 204.98604536067427 69.19131058454218 C 185.6318264952361 65.98653077393502 146.58133252464816 86.88728353537786 144.26165853446395 97.04161893020216 C 141.94198454427973 107.19595432502646 191.9408136905668 121.27458752560123 191.06800141956904 130.117322953488 C 190.19518914857127 138.96005838137478 145.7593332442336 155.34060655509268 139.02478490847727 150.09803149752284 C 132.29023657272094 144.855456439953 157.8276457474439 104.36274340325106 150.66071140503104 98.661872608069 C 143.49377706261816 92.96100181288695 102.78846069328937 102.73281996572489 96.02317885400008 115.89280672643054 C 89.25789701471079 129.05279348713617 115.44823162073017 170.2864907468752 110.06902036929532 177.6217931723029 C 104.68980911786046 184.95709559773059 64.16470547977643 168.0321805547106 63.747911345390996 159.90462127899667 C 63.33111721100556 151.77706200328274 100.01713949872762 124.9862559732843 107.56825556298271 128.8564375180193 C 115.11937162723781 132.7266190627543 115.69973116939444 178.418323685715 109.05460773092162 183.12571054740673 C 102.4094842924488 187.83309740909846 66.42318816278221 165.08627764433436 67.69751493214578 157.10075868816975 C 68.97184170150935 149.11523973200514 109.98116063718301 130.37402132023118 116.700568347103 135.21259681041897 C 123.41997605702299 140.05117230060677 115.30231944430349 183.17479871529645 108.0139611916657 186.13221162929645 C 100.72560293902791 189.08962454329645 70.09747619081035 160.46894510062415 72.97041883127622 152.95707429441904 C 75.84336147174209 145.44520348821393 119.67584347317887 134.8400732760055 125.25161703446088 141.06098679206573 C 130.82739059574288 147.28190030812596 114.10768964669755 188.493434600273 106.42506019896824 190.28255539078046 C 98.74243075123893 192.07167618128793 75.18431278204146 158.44343658006332 79.15584034808502 151.79571153511057 C 83.12736791412858 145.14798649015782 126.57857825206867 142.93686347218906 130.25422559522963 150.3962051210639 C 133.9298729383906 157.85554676993874 109.19252692576525 195.89357199034356 101.2097244070508 196.55176142835967"
       stroke-opacity="1"
       stroke-linecap="round"
       stroke-miterlimit="10"
       stroke-width="2"
       stroke-dasharray=""
       id="path134" />
  </g>
</svg>
